<!-- Generated by IcoMoon.io -->
<svg version="1.1" xmlns="http://www.w3.org/2000/svg" width="16" height="16" viewBox="0 0 16 16">
<title>icecream</title>
<path fill="#272727" d="M13 6.5c0-1.361-0.792-2.591-2.004-3.164-0.086-1.854-1.621-3.336-3.496-3.336s-3.41 1.482-3.496 3.336c-1.184 0.562-2.004 1.769-2.004 3.164 0 1.446 0.882 2.69 2.136 3.223l2.915 5.996c0.084 0.172 0.258 0.281 0.45 0.281s0.366-0.109 0.45-0.281l2.915-5.996c1.254-0.533 2.136-1.777 2.136-3.223zM9.5 9h-4c-1.378 0-2.5-1.122-2.5-2.5s1.122-2.5 2.5-2.5c0.286 0 0.567 0.048 0.833 0.142 0.26 0.092 0.546-0.044 0.638-0.305s-0.044-0.546-0.305-0.638c-0.374-0.132-0.767-0.199-1.167-0.199-0.154 0-0.306 0.010-0.455 0.030 0.221-1.154 1.237-2.030 2.455-2.030 1.379 0 2.5 1.121 2.5 2.5 0 0.616-0.226 1.208-0.637 1.667-0.184 0.206-0.167 0.522 0.039 0.706 0.095 0.085 0.215 0.127 0.333 0.127 0.137 0 0.274-0.056 0.373-0.167 0.367-0.41 0.629-0.897 0.77-1.419 0.688 0.456 1.121 1.235 1.121 2.086 0 1.378-1.121 2.5-2.5 2.5z"></path>
</svg>
